<mxfile host="app.diagrams.net" agent="Mozilla/5.0 (Windows NT 10.0; Win64; x64) AppleWebKit/537.36 (KHTML, like Gecko) Chrome/131.0.0.0 Safari/537.36 Edg/131.0.0.0" version="24.9.0">
  <diagram id="7gcUSTIZ7YSJ5vT40chW" name="Page-1">
    <mxGraphModel dx="1437" dy="1053" grid="1" gridSize="10" guides="1" tooltips="1" connect="1" arrows="1" fold="1" page="1" pageScale="1" pageWidth="1169" pageHeight="827" math="0" shadow="0">
      <root>
        <mxCell id="0" />
        <mxCell id="1" parent="0" />
        <mxCell id="QRNC93a7bk1nr1__6tcH-12" style="edgeStyle=orthogonalEdgeStyle;rounded=0;orthogonalLoop=1;jettySize=auto;html=1;startArrow=none;" parent="1" source="QRNC93a7bk1nr1__6tcH-53" target="QRNC93a7bk1nr1__6tcH-10" edge="1">
          <mxGeometry relative="1" as="geometry" />
        </mxCell>
        <mxCell id="QRNC93a7bk1nr1__6tcH-2" value="Browser" style="shape=image;html=1;verticalAlign=top;verticalLabelPosition=bottom;labelBackgroundColor=#ffffff;imageAspect=0;aspect=fixed;image=https://cdn2.iconfinder.com/data/icons/social-media-and-payment/64/-36-128.png" parent="1" vertex="1">
          <mxGeometry x="100" y="375" width="79" height="79" as="geometry" />
        </mxCell>
        <mxCell id="QRNC93a7bk1nr1__6tcH-21" value="" style="ellipse;whiteSpace=wrap;html=1;aspect=fixed;strokeWidth=2;fontFamily=Helvetica;spacingBottom=4;spacingRight=2;strokeColor=none;fontSize=12;fontColor=default;align=center;fillColor=default;gradientColor=none;container=0;" parent="1" vertex="1" connectable="0">
          <mxGeometry x="380" y="191" width="360" height="459" as="geometry" />
        </mxCell>
        <mxCell id="QRNC93a7bk1nr1__6tcH-22" value="" style="sketch=0;aspect=fixed;html=1;points=[];align=center;image;fontSize=12;image=img/lib/mscae/Docker.svg;labelBorderColor=none;strokeColor=default;fillColor=default;gradientColor=none;gradientDirection=radial;" parent="1" vertex="1">
          <mxGeometry x="560" y="170" width="60.98" height="50" as="geometry" />
        </mxCell>
        <mxCell id="QRNC93a7bk1nr1__6tcH-27" value="1" style="ellipse;whiteSpace=wrap;html=1;aspect=fixed;strokeWidth=2;fontFamily=Tahoma;spacingBottom=4;spacingRight=2;strokeColor=#d3d3d3;labelBorderColor=none;fillColor=default;gradientColor=none;gradientDirection=radial;" parent="1" vertex="1">
          <mxGeometry x="250" y="404" width="20" height="20" as="geometry" />
        </mxCell>
        <mxCell id="QRNC93a7bk1nr1__6tcH-28" value="" style="edgeStyle=orthogonalEdgeStyle;rounded=0;orthogonalLoop=1;jettySize=auto;html=1;endArrow=none;" parent="1" source="QRNC93a7bk1nr1__6tcH-2" target="QRNC93a7bk1nr1__6tcH-27" edge="1">
          <mxGeometry relative="1" as="geometry">
            <mxPoint x="179" y="414.5" as="sourcePoint" />
            <mxPoint x="380" y="414.5" as="targetPoint" />
          </mxGeometry>
        </mxCell>
        <mxCell id="QRNC93a7bk1nr1__6tcH-49" value="" style="rounded=0;whiteSpace=wrap;html=1;fillColor=#EAEDED;fontSize=22;fontColor=#FFFFFF;strokeColor=none;labelBackgroundColor=none;" parent="1" vertex="1">
          <mxGeometry x="780" y="30" width="370" height="730" as="geometry" />
        </mxCell>
        <mxCell id="QRNC93a7bk1nr1__6tcH-50" value="1" style="rounded=1;whiteSpace=wrap;html=1;fillColor=#007CBD;strokeColor=none;fontColor=#FFFFFF;fontStyle=1;fontSize=22;labelBackgroundColor=none;" parent="1" vertex="1">
          <mxGeometry x="800" y="60" width="40" height="38" as="geometry" />
        </mxCell>
        <mxCell id="QRNC93a7bk1nr1__6tcH-51" value="&lt;span&gt;Request made from browser, nginx container will redirect request based on routing to angular (frontend) container (if it is not starting with api)&lt;/span&gt;" style="text;html=1;align=left;verticalAlign=top;spacingTop=-4;fontSize=14;labelBackgroundColor=none;whiteSpace=wrap;" parent="1" vertex="1">
          <mxGeometry x="850" y="52" width="290" height="68" as="geometry" />
        </mxCell>
        <mxCell id="QRNC93a7bk1nr1__6tcH-53" value="3" style="ellipse;whiteSpace=wrap;html=1;aspect=fixed;strokeWidth=2;fontFamily=Tahoma;spacingBottom=4;spacingRight=2;strokeColor=#d3d3d3;labelBorderColor=none;fillColor=default;gradientColor=none;gradientDirection=radial;" parent="1" vertex="1">
          <mxGeometry x="310" y="404" width="20" height="20" as="geometry" />
        </mxCell>
        <mxCell id="QRNC93a7bk1nr1__6tcH-55" value="" style="edgeStyle=orthogonalEdgeStyle;rounded=0;orthogonalLoop=1;jettySize=auto;html=1;startArrow=none;endArrow=none;" parent="1" source="QRNC93a7bk1nr1__6tcH-27" target="QRNC93a7bk1nr1__6tcH-53" edge="1">
          <mxGeometry relative="1" as="geometry">
            <mxPoint x="270" y="414" as="sourcePoint" />
            <mxPoint x="380" y="414.5" as="targetPoint" />
          </mxGeometry>
        </mxCell>
        <mxCell id="QRNC93a7bk1nr1__6tcH-56" value="2" style="rounded=1;whiteSpace=wrap;html=1;fillColor=#007CBD;strokeColor=none;fontColor=#FFFFFF;fontStyle=1;fontSize=22;labelBackgroundColor=none;" parent="1" vertex="1">
          <mxGeometry x="800" y="140" width="40" height="38" as="geometry" />
        </mxCell>
        <mxCell id="QRNC93a7bk1nr1__6tcH-57" value="Request will hit angular container and will download all required resources to display the first routing." style="text;html=1;align=left;verticalAlign=top;spacingTop=-4;fontSize=14;labelBackgroundColor=none;whiteSpace=wrap;" parent="1" vertex="1">
          <mxGeometry x="850" y="140" width="290" height="68" as="geometry" />
        </mxCell>
        <mxCell id="QRNC93a7bk1nr1__6tcH-58" value="3" style="rounded=1;whiteSpace=wrap;html=1;fillColor=#007CBD;strokeColor=none;fontColor=#FFFFFF;fontStyle=1;fontSize=22;labelBackgroundColor=none;" parent="1" vertex="1">
          <mxGeometry x="800" y="230" width="40" height="38" as="geometry" />
        </mxCell>
        <mxCell id="QRNC93a7bk1nr1__6tcH-59" value="As it is SPA, now the API request will be made from browser, and it will go to nginx container." style="text;html=1;align=left;verticalAlign=top;spacingTop=-4;fontSize=14;labelBackgroundColor=none;whiteSpace=wrap;" parent="1" vertex="1">
          <mxGeometry x="850" y="230" width="290" height="68" as="geometry" />
        </mxCell>
        <mxCell id="QRNC93a7bk1nr1__6tcH-60" value="4" style="rounded=1;whiteSpace=wrap;html=1;fillColor=#007CBD;strokeColor=none;fontColor=#FFFFFF;fontStyle=1;fontSize=22;labelBackgroundColor=none;" parent="1" vertex="1">
          <mxGeometry x="800" y="330" width="40" height="38" as="geometry" />
        </mxCell>
        <mxCell id="QRNC93a7bk1nr1__6tcH-61" value="Nginx container based on routing (/api) will redirect requests to dotnet (backend) container." style="text;html=1;align=left;verticalAlign=top;spacingTop=-4;fontSize=14;labelBackgroundColor=none;whiteSpace=wrap;" parent="1" vertex="1">
          <mxGeometry x="850" y="330" width="290" height="68" as="geometry" />
        </mxCell>
        <mxCell id="QRNC93a7bk1nr1__6tcH-62" value="5" style="rounded=1;whiteSpace=wrap;html=1;fillColor=#007CBD;strokeColor=none;fontColor=#FFFFFF;fontStyle=1;fontSize=22;labelBackgroundColor=none;" parent="1" vertex="1">
          <mxGeometry x="800" y="440" width="40" height="38" as="geometry" />
        </mxCell>
        <mxCell id="QRNC93a7bk1nr1__6tcH-63" value="if any api requests required database connection it will communicate to our database container." style="text;html=1;align=left;verticalAlign=top;spacingTop=-4;fontSize=14;labelBackgroundColor=none;whiteSpace=wrap;" parent="1" vertex="1">
          <mxGeometry x="860" y="440" width="290" height="68" as="geometry" />
        </mxCell>
        <mxCell id="QRNC93a7bk1nr1__6tcH-76" value="6" style="rounded=1;whiteSpace=wrap;html=1;fillColor=#007CBD;strokeColor=none;fontColor=#FFFFFF;fontStyle=1;fontSize=22;labelBackgroundColor=none;" parent="1" vertex="1">
          <mxGeometry x="800" y="530" width="40" height="38" as="geometry" />
        </mxCell>
        <mxCell id="QRNC93a7bk1nr1__6tcH-77" value="MS SQL exposed on port 1433 and can be accesses by SQL Server Managment Studio (SSMS) or Azure Data Studio" style="text;html=1;align=left;verticalAlign=top;spacingTop=-4;fontSize=14;labelBackgroundColor=none;whiteSpace=wrap;" parent="1" vertex="1">
          <mxGeometry x="860" y="530" width="290" height="68" as="geometry" />
        </mxCell>
        <mxCell id="QRNC93a7bk1nr1__6tcH-10" value="NGINX" style="sketch=0;outlineConnect=0;fontColor=#232F3E;gradientColor=none;strokeColor=#232F3E;fillColor=#ffffff;dashed=0;verticalLabelPosition=bottom;verticalAlign=top;align=center;html=1;fontSize=12;fontStyle=0;aspect=fixed;shape=mxgraph.aws4.resourceIcon;resIcon=mxgraph.aws4.container_1;labelPosition=center;spacingTop=-24;" parent="1" vertex="1">
          <mxGeometry x="380" y="370" width="89" height="89" as="geometry" />
        </mxCell>
        <mxCell id="QRNC93a7bk1nr1__6tcH-3" value="Angular" style="sketch=0;outlineConnect=0;fontColor=#232F3E;gradientColor=none;strokeColor=#232F3E;fillColor=#ffffff;dashed=0;verticalLabelPosition=bottom;verticalAlign=top;align=center;html=1;fontSize=12;fontStyle=0;aspect=fixed;shape=mxgraph.aws4.resourceIcon;resIcon=mxgraph.aws4.container_1;labelPosition=center;labelBorderColor=none;gradientDirection=radial;spacingTop=-24;" parent="1" vertex="1">
          <mxGeometry x="650" y="191" width="90" height="90" as="geometry" />
        </mxCell>
        <mxCell id="QRNC93a7bk1nr1__6tcH-4" value="dotnet" style="sketch=0;outlineConnect=0;fontColor=#232F3E;gradientColor=none;strokeColor=#232F3E;fillColor=#ffffff;dashed=0;verticalLabelPosition=bottom;verticalAlign=top;align=center;html=1;fontSize=12;fontStyle=0;aspect=fixed;shape=mxgraph.aws4.resourceIcon;resIcon=mxgraph.aws4.container_1;labelPosition=center;spacingTop=-24;" parent="1" vertex="1">
          <mxGeometry x="650" y="369" width="90" height="90" as="geometry" />
        </mxCell>
        <mxCell id="QRNC93a7bk1nr1__6tcH-19" value="&lt;br&gt;" style="edgeStyle=orthogonalEdgeStyle;rounded=0;orthogonalLoop=1;jettySize=auto;html=1;startArrow=none;" parent="1" source="QRNC93a7bk1nr1__6tcH-42" target="QRNC93a7bk1nr1__6tcH-4" edge="1">
          <mxGeometry relative="1" as="geometry" />
        </mxCell>
        <mxCell id="QRNC93a7bk1nr1__6tcH-5" value="MS SQL" style="sketch=0;outlineConnect=0;fontColor=#232F3E;gradientColor=none;strokeColor=#232F3E;fillColor=#ffffff;dashed=0;verticalLabelPosition=bottom;verticalAlign=top;align=center;html=1;fontSize=12;fontStyle=0;aspect=fixed;shape=mxgraph.aws4.resourceIcon;resIcon=mxgraph.aws4.container_1;labelPosition=center;spacingTop=-24;" parent="1" vertex="1">
          <mxGeometry x="650" y="560" width="90" height="90" as="geometry" />
        </mxCell>
        <mxCell id="QRNC93a7bk1nr1__6tcH-18" style="edgeStyle=orthogonalEdgeStyle;rounded=0;orthogonalLoop=1;jettySize=auto;html=1;" parent="1" source="QRNC93a7bk1nr1__6tcH-4" target="QRNC93a7bk1nr1__6tcH-5" edge="1">
          <mxGeometry relative="1" as="geometry" />
        </mxCell>
        <mxCell id="QRNC93a7bk1nr1__6tcH-14" value="" style="endArrow=classic;html=1;rounded=0;startArrow=none;" parent="1" source="QRNC93a7bk1nr1__6tcH-37" edge="1">
          <mxGeometry width="50" height="50" relative="1" as="geometry">
            <mxPoint x="430" y="380" as="sourcePoint" />
            <mxPoint x="640" y="240" as="targetPoint" />
            <Array as="points">
              <mxPoint x="425" y="240" />
            </Array>
          </mxGeometry>
        </mxCell>
        <mxCell id="QRNC93a7bk1nr1__6tcH-37" value="2" style="ellipse;whiteSpace=wrap;html=1;aspect=fixed;strokeWidth=2;fontFamily=Tahoma;spacingBottom=4;spacingRight=2;strokeColor=#d3d3d3;labelBorderColor=none;fillColor=default;gradientColor=none;gradientDirection=radial;" parent="1" vertex="1">
          <mxGeometry x="414.5" y="320" width="20" height="20" as="geometry" />
        </mxCell>
        <mxCell id="QRNC93a7bk1nr1__6tcH-41" value="" style="endArrow=none;html=1;rounded=0;" parent="1" source="QRNC93a7bk1nr1__6tcH-10" target="QRNC93a7bk1nr1__6tcH-37" edge="1">
          <mxGeometry width="50" height="50" relative="1" as="geometry">
            <mxPoint x="804.6275071633238" y="561" as="sourcePoint" />
            <mxPoint x="1020" y="431" as="targetPoint" />
            <Array as="points" />
          </mxGeometry>
        </mxCell>
        <mxCell id="QRNC93a7bk1nr1__6tcH-42" value="4" style="ellipse;whiteSpace=wrap;html=1;aspect=fixed;strokeWidth=2;fontFamily=Tahoma;spacingBottom=4;spacingRight=2;strokeColor=#d3d3d3;labelBorderColor=none;fillColor=default;gradientColor=none;gradientDirection=radial;" parent="1" vertex="1">
          <mxGeometry x="530" y="404" width="20" height="20" as="geometry" />
        </mxCell>
        <mxCell id="QRNC93a7bk1nr1__6tcH-43" value="" style="edgeStyle=orthogonalEdgeStyle;rounded=0;orthogonalLoop=1;jettySize=auto;html=1;endArrow=none;" parent="1" source="QRNC93a7bk1nr1__6tcH-10" target="QRNC93a7bk1nr1__6tcH-42" edge="1">
          <mxGeometry relative="1" as="geometry">
            <mxPoint x="849" y="605.5" as="sourcePoint" />
            <mxPoint x="1030" y="605" as="targetPoint" />
          </mxGeometry>
        </mxCell>
        <mxCell id="QRNC93a7bk1nr1__6tcH-48" value="5" style="ellipse;whiteSpace=wrap;html=1;aspect=fixed;strokeWidth=2;fontFamily=Tahoma;spacingBottom=4;spacingRight=2;strokeColor=#d3d3d3;labelBorderColor=none;fillColor=default;gradientColor=none;gradientDirection=radial;" parent="1" vertex="1">
          <mxGeometry x="685" y="490" width="20" height="20" as="geometry" />
        </mxCell>
        <mxCell id="pOM3CoK74Ua-k6Zgg_A0-2" style="edgeStyle=orthogonalEdgeStyle;rounded=0;orthogonalLoop=1;jettySize=auto;html=1;" edge="1" parent="1" source="pOM3CoK74Ua-k6Zgg_A0-1" target="QRNC93a7bk1nr1__6tcH-5">
          <mxGeometry relative="1" as="geometry" />
        </mxCell>
        <mxCell id="pOM3CoK74Ua-k6Zgg_A0-1" value="SSMS or Azure Data Studio" style="rounded=0;whiteSpace=wrap;html=1;" vertex="1" parent="1">
          <mxGeometry x="110" y="577.5" width="80" height="55" as="geometry" />
        </mxCell>
      </root>
    </mxGraphModel>
  </diagram>
</mxfile>
